<?xml version="1.0" encoding="UTF-8"?>
<svg width="3300px" height="2200px" viewBox="0 0 3300 2200" version="1.1" xmlns="http://www.w3.org/2000/svg" xmlns:xlink="http://www.w3.org/1999/xlink">
    <!-- Generator: Sketch 51.2 (57519) - http://www.bohemiancoding.com/sketch -->
    <title>zedd.heart</title>
    <desc>Created with Sketch.</desc>
    <defs></defs>
    <g id="Page-1" stroke="none" stroke-width="1" fill="none" fill-rule="evenodd">
        <g id="zedd.heart">
            <g id="Notes">
                <rect id="artboard" fill="#FFFFFF" fill-rule="nonzero" x="0" y="0" width="3300" height="2200"></rect>
                <path d="M263,292 L3036,292" id="Shape" stroke="#000000" stroke-width="0.5"></path>
                <text id="Weight/Scale-Variations" fill="#000000" font-family="Helvetica-Bold, Helvetica" font-size="13" font-weight="bold">
                    <tspan x="263" y="322">Weight/Scale Variations</tspan>
                </text>
                <text id="Ultralight" fill="#000000" font-family="Helvetica" font-size="13" font-weight="normal">
                    <tspan x="533.711" y="322">Ultralight</tspan>
                </text>
                <text id="Thin" fill="#000000" font-family="Helvetica" font-size="13" font-weight="normal">
                    <tspan x="843.422" y="322">Thin</tspan>
                </text>
                <text id="Light" fill="#000000" font-family="Helvetica" font-size="13" font-weight="normal">
                    <tspan x="1138.63" y="322">Light</tspan>
                </text>
                <text id="Regular" fill="#000000" font-family="Helvetica" font-size="13" font-weight="normal">
                    <tspan x="1426.84" y="322">Regular</tspan>
                </text>
                <text id="Medium" fill="#000000" font-family="Helvetica" font-size="13" font-weight="normal">
                    <tspan x="1723.06" y="322">Medium</tspan>
                </text>
                <text id="Semibold" fill="#000000" font-family="Helvetica" font-size="13" font-weight="normal">
                    <tspan x="2015.77" y="322">Semibold</tspan>
                </text>
                <text id="Bold" fill="#000000" font-family="Helvetica" font-size="13" font-weight="normal">
                    <tspan x="2326.48" y="322">Bold</tspan>
                </text>
                <text id="Heavy" fill="#000000" font-family="Helvetica" font-size="13" font-weight="normal">
                    <tspan x="2618.19" y="322">Heavy</tspan>
                </text>
                <text id="Black" fill="#000000" font-family="Helvetica" font-size="13" font-weight="normal">
                    <tspan x="2917.4" y="322">Black</tspan>
                </text>
                <path d="M263,1903 L3036,1903" id="Shape" stroke="#000000" stroke-width="0.5"></path>
                <g id="Group" transform="translate(264.000000, 1918.000000)" fill="#000000" fill-rule="nonzero">
                    <path d="M8.24805,15.830078 C12.5547,15.830078 16.1387,12.25586 16.1387,7.94922 C16.1387,3.6426 12.5449,0.0684 8.23828,0.0684 C3.94141,0.0684 0.36719,3.6426 0.36719,7.94922 C0.36719,12.25586 3.95117,15.830078 8.24805,15.830078 Z M8.24805,14.345703 C4.70312,14.345703 1.87109,11.50391 1.87109,7.94922 C1.87109,4.3945 4.69336,1.5527 8.23828,1.5527 C11.793,1.5527 14.6348,4.3945 14.6445,7.94922 C14.6543,11.50391 11.8027,14.345703 8.24805,14.345703 Z M8.22852,11.57227 C8.69727,11.57227 8.9707,11.25977 8.9707,10.74219 L8.9707,8.68164 L11.1973,8.68164 C11.6953,8.68164 12.0371,8.42773 12.0371,7.95898 C12.0371,7.48047 11.7148,7.2168 11.1973,7.2168 L8.9707,7.2168 L8.9707,4.9902 C8.9707,4.4727 8.69727,4.1504 8.22852,4.1504 C7.75977,4.1504 7.50586,4.4922 7.50586,4.9902 L7.50586,7.2168 L5.29883,7.2168 C4.78125,7.2168 4.44922,7.48047 4.44922,7.95898 C4.44922,8.42773 4.80078,8.68164 5.29883,8.68164 L7.50586,8.68164 L7.50586,10.74219 C7.50586,11.24023 7.75977,11.57227 8.22852,11.57227 Z" id="Shape"></path>
                </g>
                <g id="Group" transform="translate(282.506000, 1915.000000)" fill="#000000" fill-rule="nonzero">
                    <path d="M10.709,20.91016 C16.1582,20.91016 20.6699,16.39844 20.6699,10.94922 C20.6699,5.5098 16.1484,0.9883 10.6992,0.9883 C5.25977,0.9883 0.74805,5.5098 0.74805,10.94922 C0.74805,16.39844 5.26953,20.91016 10.709,20.91016 Z M10.709,19.25 C6.09961,19.25 2.41797,15.55859 2.41797,10.94922 C2.41797,6.3496 6.08984,2.6484 10.6992,2.6484 C15.3086,2.6484 19,6.3496 19.0098,10.94922 C19.0195,15.55859 15.3184,19.25 10.709,19.25 Z M10.6895,15.58789 C11.207,15.58789 11.5195,15.22656 11.5195,14.66016 L11.5195,11.76953 L14.5762,11.76953 C15.123,11.76953 15.5039,11.48633 15.5039,10.96875 C15.5039,10.44141 15.1426,10.13867 14.5762,10.13867 L11.5195,10.13867 L11.5195,7.0723 C11.5195,6.4961 11.207,6.1445 10.6895,6.1445 C10.1719,6.1445 9.8789,6.5156 9.8789,7.0723 L9.8789,10.13867 L6.83203,10.13867 C6.26562,10.13867 5.89453,10.44141 5.89453,10.96875 C5.89453,11.48633 6.28516,11.76953 6.83203,11.76953 L9.8789,11.76953 L9.8789,14.66016 C9.8789,15.20703 10.1719,15.58789 10.6895,15.58789 Z" id="Shape"></path>
                </g>
                <g id="Group" transform="translate(306.924000, 1913.000000)" fill="#000000" fill-rule="nonzero">
                    <path d="M12.9707,25.67383 C19.9336,25.67383 25.6953,19.921875 25.6953,12.95898 C25.6953,5.9961 19.9238,0.2441 12.9609,0.2441 C6.00781,0.2441 0.25586,5.9961 0.25586,12.95898 C0.25586,19.921875 6.01758,25.67383 12.9707,25.67383 Z M12.9707,23.85742 C6.93555,23.85742 2.08203,18.99414 2.08203,12.95898 C2.08203,6.9238 6.92578,2.0605 12.9609,2.0605 C19.0059,2.0605 23.8594,6.9238 23.8691,12.95898 C23.8789,18.99414 19.0156,23.85742 12.9707,23.85742 Z M12.9512,18.93555 C13.5176,18.93555 13.8691,18.54492 13.8691,17.93945 L13.8691,13.86719 L18.1074,13.86719 C18.6934,13.86719 19.1133,13.53516 19.1133,12.97852 C19.1133,12.40234 18.7227,12.06055 18.1074,12.06055 L13.8691,12.06055 L13.8691,7.8125 C13.8691,7.1973 13.5176,6.8066 12.9512,6.8066 C12.3848,6.8066 12.0625,7.2168 12.0625,7.8125 L12.0625,12.06055 L7.83398,12.06055 C7.21875,12.06055 6.80859,12.40234 6.80859,12.97852 C6.80859,13.53516 7.23828,13.86719 7.83398,13.86719 L12.0625,13.86719 L12.0625,17.93945 C12.0625,18.52539 12.3848,18.93555 12.9512,18.93555 Z" id="Shape"></path>
                </g>
                <text id="Design-Variations" fill="#000000" font-family="Helvetica-Bold, Helvetica" font-size="13" font-weight="bold">
                    <tspan x="263" y="1953">Design Variations</tspan>
                </text>
                <text id="Symbols-are-supported-in-up-to-nine-weights-and-three-scales." fill="#000000" font-family="Helvetica" font-size="13" font-weight="normal">
                    <tspan x="263" y="1971">Symbols are supported in up to nine weights and three scales.</tspan>
                </text>
                <text id="For-optimal-layout-with-text-and-other-symbols,-vertically-align" fill="#000000" font-family="Helvetica" font-size="13" font-weight="normal">
                    <tspan x="263" y="1989">For optimal layout with text and other symbols, vertically align</tspan>
                </text>
                <text id="symbols-with-the-adjacent-text." fill="#000000" font-family="Helvetica" font-size="13" font-weight="normal">
                    <tspan x="263" y="2007">symbols with the adjacent text.</tspan>
                </text>
                <rect id="Rectangle-path" fill="#00AEEF" fill-rule="nonzero" opacity="0.4" x="776" y="1919" width="3" height="14"></rect>
                <g id="Group" transform="translate(779.000000, 1918.000000)" fill="#000000" fill-rule="nonzero">
                    <path d="M10.5273,15 L12.373,15 L7.17773,0.9082 L5.43945,0.9082 L0.244141,15 L2.08984,15 L3.50586,10.9668 L9.11133,10.9668 L10.5273,15 Z M6.2793,3.0469 L6.33789,3.0469 L8.59375,9.47266 L4.02344,9.47266 L6.2793,3.0469 Z" id="Shape"></path>
                </g>
                <rect id="Rectangle-path" fill="#00AEEF" fill-rule="nonzero" opacity="0.4" x="791.617" y="1919" width="3" height="14"></rect>
                <text id="Margins" fill="#000000" font-family="Helvetica-Bold, Helvetica" font-size="13" font-weight="bold">
                    <tspan x="776" y="1953">Margins</tspan>
                </text>
                <text id="Leading-and-trailing-margins-on-the-left-and-right-side-of-each-symbol" fill="#000000" font-family="Helvetica" font-size="13" font-weight="normal">
                    <tspan x="776" y="1971">Leading and trailing margins on the left and right side of each symbol</tspan>
                </text>
                <text id="can-be-adjusted-by-modifying-the-width-of-the-blue-rectangles." fill="#000000" font-family="Helvetica" font-size="13" font-weight="normal">
                    <tspan x="776" y="1989">can be adjusted by modifying the width of the blue rectangles.</tspan>
                </text>
                <text id="Modifications-are-automatically-applied-proportionally-to-all" fill="#000000" font-family="Helvetica" font-size="13" font-weight="normal">
                    <tspan x="776" y="2007">Modifications are automatically applied proportionally to all</tspan>
                </text>
                <text id="scales-and-weights." fill="#000000" font-family="Helvetica" font-size="13" font-weight="normal">
                    <tspan x="776" y="2025">scales and weights.</tspan>
                </text>
                <g id="Group" transform="translate(1291.000000, 1915.000000)" fill="#000000" fill-rule="nonzero">
                    <path d="M0.83203,21.11523 L2.375,22.6582 C3.22461,23.48828 4.19141,23.41992 5.06055,22.46289 L15.2754,11.33984 C15.7051,11.63281 16.0957,11.62305 16.5645,11.52539 L17.6094,11.31055 L18.3027,12.00391 L18.2539,12.52148 C18.1855,13.04883 18.3516,13.46875 18.8496,13.9668 L19.6602,14.77734 C20.168,15.28516 20.8223,15.31445 21.3008,14.83594 L24.5527,11.58398 C25.0312,11.10547 25.0117,10.45117 24.5039,9.94336 L23.6836,9.12305 C23.1855,8.625 22.7754,8.44922 22.2383,8.52734 L21.7109,8.58594 L21.0566,7.9219 L21.3398,6.7793 C21.4863,6.2129 21.3398,5.7441 20.7148,5.1387 L18.3027,2.7461 C14.7578,-0.7793 10.2266,-0.6719 7.11133,2.4629 C6.69141,2.8926 6.64258,3.4785 6.91602,3.9082 C7.15039,4.2793 7.62891,4.5039 8.2734,4.3379 C9.7871,3.957 11.3008,4.0742 12.7852,5.0801 L12.1602,6.6621 C11.9258,7.248 11.9453,7.7266 12.1797,8.16602 L1.01758,18.439453 C0.08008,19.30859 -0.02734,20.25586 0.83203,21.11523 Z M8.6738,2.8535 C11.3398,0.8613 14.6504,1.1738 17.0527,3.5859 L19.6797,6.1934 C19.9141,6.4277 19.9434,6.6133 19.8848,6.9062 L19.5039,8.46875 L21.0762,10.04102 L22.043,9.95312 C22.3262,9.92383 22.4141,9.94336 22.6387,10.16797 L23.2637,10.79297 L20.5098,13.53711 L19.8848,12.92188 C19.6602,12.69727 19.6406,12.59961 19.6699,12.31641 L19.7578,11.35938 L18.1953,9.79688 L16.5742,10.10938 C16.291,10.16797 16.1445,10.16797 15.9102,9.92383 L13.7324,7.7461 C13.5078,7.5117 13.4785,7.375 13.6055,7.0527 L14.5527,4.7773 C12.9512,3.2441 10.8418,2.3945 8.8008,3.0488 C8.7129,3.0781 8.6445,3.0586 8.6152,3.0195 C8.5859,2.9707 8.5859,2.9219 8.6738,2.8535 Z M2.10156,20.41211 C1.61328,19.91406 1.78906,19.61133 2.12109,19.30859 L13.0781,9.19141 L14.3086,10.42188 L4.15234,21.34961 C3.84961,21.68164 3.46875,21.7793 3.06836,21.37891 L2.10156,20.41211 Z" id="Shape"></path>
                </g>
                <text id="Exporting" fill="#000000" font-family="Helvetica-Bold, Helvetica" font-size="13" font-weight="bold">
                    <tspan x="1289" y="1953">Exporting</tspan>
                </text>
                <text id="Symbols-should-be-outlined-when-exporting-to-ensure-the" fill="#000000" font-family="Helvetica" font-size="13" font-weight="normal">
                    <tspan x="1289" y="1971">Symbols should be outlined when exporting to ensure the</tspan>
                </text>
                <text id="design-is-preserved-when-submitting-to-Xcode." fill="#000000" font-family="Helvetica" font-size="13" font-weight="normal">
                    <tspan x="1289" y="1989">design is preserved when submitting to Xcode.</tspan>
                </text>
                <text id="template-version" fill="#000000" font-family="Helvetica" font-size="13" font-weight="normal">
                    <tspan x="2952" y="1933">Template v.1.0</tspan>
                </text>
                <text id="Generated-from-suit.heart" fill="#000000" font-family="Helvetica" font-size="13" font-weight="normal">
                    <tspan x="2887" y="1951">Generated from suit.heart</tspan>
                </text>
                <text id="Typeset-at-100-points" fill="#000000" font-family="Helvetica" font-size="13" font-weight="normal">
                    <tspan x="2912" y="1969">Typeset at 100 points</tspan>
                </text>
                <text id="Small" fill="#000000" font-family="Helvetica" font-size="13" font-weight="normal">
                    <tspan x="263" y="726">Small</tspan>
                </text>
                <text id="Medium" fill="#000000" font-family="Helvetica" font-size="13" font-weight="normal">
                    <tspan x="263" y="1156">Medium</tspan>
                </text>
                <text id="Large" fill="#000000" font-family="Helvetica" font-size="13" font-weight="normal">
                    <tspan x="263" y="1586">Large</tspan>
                </text>
            </g>
            <g id="Guides" transform="translate(263.000000, 625.000000)">
                <g id="H-reference" transform="translate(76.000000, 0.000000)" fill="#27AAE1" fill-rule="nonzero">
                    <path d="M54.9316,71 L57.666,71 L30.5664,0.541 L28.0762,0.541 L0.976562,71 L3.66211,71 L12.9395,46.5371 L45.7031,46.5371 L54.9316,71 Z M29.1992,3.9102 L29.4434,3.9102 L44.8242,44.291 L13.8184,44.291 L29.1992,3.9102 Z" id="Shape"></path>
                </g>
                <path d="M0,71 L2773,71" id="Baseline-S" stroke="#27AAE1" stroke-width="0.577"></path>
                <path d="M0,0.541 L2773,0.541" id="Capline-S" stroke="#27AAE1" stroke-width="0.577"></path>
                <g id="H-reference" transform="translate(76.000000, 430.000000)" fill="#27AAE1" fill-rule="nonzero">
                    <path d="M54.9316,71 L57.666,71 L30.5664,0.541 L28.0762,0.541 L0.976562,71 L3.66211,71 L12.9395,46.5371 L45.7031,46.5371 L54.9316,71 Z M29.1992,3.9102 L29.4434,3.9102 L44.8242,44.291 L13.8184,44.291 L29.1992,3.9102 Z" id="Shape"></path>
                </g>
                <path d="M0,501 L2773,501" id="Baseline-M" stroke="#27AAE1" stroke-width="0.577"></path>
                <path d="M0,430.54 L2773,430.54" id="Capline-M" stroke="#27AAE1" stroke-width="0.577"></path>
                <g id="H-reference" transform="translate(76.000000, 860.000000)" fill="#27AAE1" fill-rule="nonzero">
                    <path d="M54.9316,71 L57.666,71 L30.5664,0.541 L28.0762,0.541 L0.976562,71 L3.66211,71 L12.9395,46.5371 L45.7031,46.5371 L54.9316,71 Z M29.1992,3.9102 L29.4434,3.9102 L44.8242,44.291 L13.8184,44.291 L29.1992,3.9102 Z" id="Shape"></path>
                </g>
                <path d="M0,931 L2773,931" id="Baseline-L" stroke="#27AAE1" stroke-width="0.577"></path>
                <path d="M0,860.54 L2773,860.54" id="Capline-L" stroke="#27AAE1" stroke-width="0.577"></path>
                <rect id="left-margin" fill="#00AEEF" fill-rule="nonzero" opacity="0.4" x="1126.3" y="405.79" width="12.0605" height="119.336"></rect>
                <rect id="right-margin" fill="#00AEEF" fill-rule="nonzero" opacity="0.4" x="1235.33" y="405.79" width="12.0605" height="119.336"></rect>
            </g>
            <g id="Symbols" transform="translate(500.000000, 622.000000)">
                <g id="Black-L" transform="translate(2365.540000, 837.000000)" fill="#000000" fill-rule="nonzero">
                    <path d="M0.3555,44.4121 C0.3555,71.707 23.1582,99.00195 57.5332,121.707 C61.3418,124.2461 65.248,126.5898 67.8359,126.5898 C70.4727,126.5898 74.3789,124.2461 78.1875,121.707 C112.562,99.00195 135.365,71.707 135.365,44.4121 C135.365,18.0938 116.957,0.8574 95.57,0.8574 C82.4844,0.8574 73.3535,6.2285 67.8359,13.748 C62.416,6.2285 53.2363,0.8574 40.1504,0.8574 C18.7637,0.8574 0.3555,18.0938 0.3555,44.4121 Z M22.1328,44.168 C22.1328,30.8867 31.3613,21.6582 43.5684,21.6582 C53.3828,21.6582 58.4121,26.9805 62.0742,31.9121 C63.9785,34.5488 65.6387,35.8184 67.8359,35.8184 C70.082,35.8184 71.5957,34.5488 73.5977,31.9121 C77.5527,26.9805 82.3379,21.6582 92.152,21.6582 C104.359,21.6582 113.588,30.8867 113.588,44.168 C113.588,62.5762 95.521,85.0859 68.7148,102.95703 C68.373,103.20117 68.0801,103.34766 67.8359,103.34766 C67.6406,103.34766 67.3477,103.20117 67.0059,102.95703 C40.1992,85.0859 22.1328,62.5762 22.1328,44.168 Z" id="Shape"></path>
                </g>
                <g id="Heavy-L" transform="translate(2069.980000, 839.000000)" fill="#000000" fill-rule="nonzero">
                    <path d="M0.5508,42.2656 C0.5508,69.3652 23.3535,96.36719 57.8262,119.0234 C61,121.1719 64.418,123.125 66.7129,123.125 C69.0078,123.125 72.377,121.1719 75.5996,119.0234 C110.072,96.36719 132.875,69.3652 132.875,42.2656 C132.875,17.0703 115.248,0.1758 94.203,0.1758 C81.459,0.1758 72.1816,5.6445 66.7129,13.5059 C61.2441,5.6934 51.918,0.1758 39.2227,0.1758 C18.1777,0.1758 0.5508,17.0703 0.5508,42.2656 Z M19.2031,42.1191 C19.2031,27.9102 28.9199,18.1445 41.8105,18.1445 C52.0645,18.1445 57.582,23.9551 61.3906,29.3262 C63.1973,31.8652 64.7109,32.9883 66.7129,32.9883 C68.7148,32.9883 70.082,31.8164 71.9863,29.3262 C76.0391,23.9551 81.3613,18.1445 91.615,18.1445 C104.506,18.1445 114.223,27.9102 114.223,42.1191 C114.223,61.748 94.545,84.8438 67.6406,102.76367 C67.25,103.05664 66.957,103.20312 66.7129,103.20312 C66.4688,103.20312 66.1758,103.05664 65.7852,102.76367 C38.832,84.8438 19.2031,61.748 19.2031,42.1191 Z" id="Shape"></path>
                </g>
                <g id="Bold-L" transform="translate(1774.560000, 840.000000)" fill="#000000" fill-rule="nonzero">
                    <path d="M0.7461,41.1191 C0.7461,68.0234 23.5488,94.683594 58.168,117.291 C60.707,118.9512 63.4902,120.5137 65.3945,120.5137 C67.2988,120.5137 70.1309,118.9512 72.6211,117.291 C107.289,94.683594 130.092,68.0234 130.092,41.1191 C130.092,17.0957 113.344,0.6895 92.641,0.6895 C80.3359,0.6895 70.9121,6.2559 65.3945,14.459 C59.9258,6.3047 50.4531,0.6895 38.1973,0.6895 C17.4453,0.6895 0.7461,17.0957 0.7461,41.1191 Z M15.9316,41.0215 C15.9316,25.8359 26.1855,15.4355 39.8574,15.4355 C50.6484,15.4355 56.6543,21.7344 60.6094,27.6426 C62.3184,30.084 63.6367,31.0605 65.3945,31.0605 C67.2012,31.0605 68.373,30.084 70.1797,27.6426 C74.3789,21.7832 80.2383,15.4355 90.98,15.4355 C104.652,15.4355 114.857,25.8359 114.857,41.0215 C114.857,62.0176 93.471,85.79688 66.4199,103.81445 C65.9805,104.1562 65.6387,104.3516 65.3945,104.3516 C65.1504,104.3516 64.8574,104.1562 64.418,103.81445 C37.3184,85.79688 15.9316,62.0176 15.9316,41.0215 Z" id="Shape"></path>
                </g>
                <g id="Semibold-L" transform="translate(1478.750000, 841.000000)" fill="#000000" fill-rule="nonzero">
                    <path d="M0.8926,40.0215 C0.8926,66.7793 23.6465,93.195312 58.4121,115.8027 C60.4629,117.1211 62.8555,118.3906 64.5156,118.3906 C66.1758,118.3906 68.5684,117.1211 70.6191,115.8027 C105.385,93.195312 128.139,66.7793 128.139,40.0215 C128.139,16.8281 112.074,0.7637 91.566,0.7637 C79.5547,0.7637 70.0332,6.3789 64.5156,14.8262 C59.0469,6.4277 49.4766,0.7637 37.4648,0.7637 C16.957,0.7637 0.8926,16.8281 0.8926,40.0215 Z M13.6855,39.9727 C13.6855,24.1035 24.2812,13.2637 38.4902,13.2637 C49.623,13.2637 56.0195,19.9531 60.1211,26.2031 C61.7324,28.5957 62.9043,29.4258 64.5156,29.4258 C66.127,29.4258 67.2012,28.5469 68.9102,26.2031 C73.207,20.002 79.457,13.2637 90.541,13.2637 C104.75,13.2637 115.346,24.1035 115.346,39.9727 C115.346,61.8965 92.738,86.16406 65.5898,104.2305 C65.1016,104.5723 64.7598,104.8164 64.5156,104.8164 C64.2715,104.8164 63.9297,104.5723 63.4414,104.2305 C36.293,86.16406 13.6855,61.8965 13.6855,39.9727 Z" id="Shape"></path>
                </g>
                <g id="Medium-L" transform="translate(1182.720000, 842.000000)" fill="#000000" fill-rule="nonzero">
                    <path d="M0.9902,38.9727 C0.9902,65.6328 23.793,91.853516 58.6074,114.4121 C60.2676,115.4863 62.3672,116.5117 63.832,116.5117 C65.2969,116.5117 67.3965,115.4863 69.1055,114.4121 C103.92,91.853516 126.674,65.6328 126.674,38.9727 C126.674,16.3652 111.098,0.5449 90.785,0.5449 C78.9688,0.5449 69.3496,6.209 63.832,14.8516 C58.3633,6.2578 48.6953,0.5449 36.9277,0.5449 C16.6152,0.5449 0.9902,16.3652 0.9902,38.9727 Z M12.0254,38.9238 C12.0254,22.5176 22.8652,11.3848 37.4648,11.3848 C48.8418,11.3848 55.5801,18.3184 59.6816,24.8613 C61.2441,27.1562 62.3184,27.9375 63.832,27.9375 C65.3457,27.9375 66.3223,27.1074 67.9824,24.8613 C72.3281,18.416 78.8711,11.3848 90.248,11.3848 C104.848,11.3848 115.688,22.5176 115.688,38.9238 C115.688,61.5801 92.201,86.18945 64.9551,104.3047 C64.4668,104.6465 64.0762,104.8906 63.832,104.8906 C63.5879,104.8906 63.2461,104.6465 62.709,104.3047 C35.5117,86.18945 12.0254,61.5801 12.0254,38.9238 Z" id="Shape"></path>
                </g>
                <g id="Regular-L" transform="translate(887.890000, 843.000000)" fill="#000000" fill-rule="nonzero">
                    <path d="M0.1367,37.875 C0.1367,64.3887 22.8906,90.365234 57.8516,112.875 C59.0723,113.6562 60.7812,114.4375 61.9531,114.4375 C63.1738,114.4375 64.8828,113.6562 66.1035,112.875 C101.016,90.365234 123.77,64.3887 123.77,37.875 C123.77,16.0977 108.779,0.5703 88.711,0.5703 C77.2363,0.5703 67.4707,6.332 61.9531,15.1699 C56.4844,6.3809 46.7188,0.5703 35.1953,0.5703 C15.127,0.5703 0.1367,16.0977 0.1367,37.875 Z M8.7793,37.875 C8.7793,20.7852 19.9609,9.2129 35.0977,9.2129 C46.8652,9.2129 53.9453,16.5371 58.1934,23.4219 C59.6582,25.668 60.6348,26.3516 61.9531,26.3516 C63.3203,26.3516 64.1504,25.6191 65.7617,23.4219 C70.2051,16.6348 77.0898,9.2129 88.809,9.2129 C103.945,9.2129 115.127,20.7852 115.127,37.875 C115.127,61.459 90.42,86.55664 63.125,104.7207 C62.5879,105.0625 62.1973,105.3555 61.9531,105.3555 C61.709,105.3555 61.3184,105.0625 60.7812,104.7207 C33.4863,86.55664 8.7793,61.459 8.7793,37.875 Z" id="Shape"></path>
                </g>
                <g id="Light-L" transform="translate(591.740000, 844.000000)" fill="#000000" fill-rule="nonzero">
                    <path d="M0.5996,36.875 C0.5996,62.9004 23.7441,88.33984 57.875,110.6543 C58.9004,111.2891 60.3652,111.9238 61.3906,111.9238 C62.4648,111.9238 63.8809,111.2891 64.9062,110.6543 C99.037,88.33984 122.23,62.9004 122.23,36.875 C122.23,15.7324 107.631,0.5957 88.051,0.5957 C76.7715,0.5957 66.6641,6.6016 61.3906,15.9277 C56.166,6.6504 46.0098,0.5957 34.7793,0.5957 C15.1992,0.5957 0.5996,15.7324 0.5996,36.875 Z M7.1914,36.875 C7.1914,19.2969 18.8613,7.2363 34.6816,7.2363 C46.3516,7.2363 53.8223,14.4141 58.2656,22.0801 C59.4375,23.9355 60.2676,24.5215 61.3906,24.5215 C62.5625,24.5215 63.2949,23.8867 64.5156,22.0801 C69.1055,14.4629 76.4785,7.2363 88.1,7.2363 C103.92,7.2363 115.59,19.2969 115.59,36.875 C115.59,60.6055 90.98,85.45898 62.416,104.502 C61.9766,104.7949 61.6348,104.9902 61.3906,104.9902 C61.1465,104.9902 60.8047,104.7949 60.4141,104.502 C31.8008,85.45898 7.1914,60.6055 7.1914,36.875 Z" id="Shape"></path>
                </g>
                <g id="Thin-L" transform="translate(296.082000, 845.000000)" fill="#000000" fill-rule="nonzero">
                    <path d="M0.8672,35.875 C0.8672,61.2168 24.5488,86.02148 57.6055,107.9941 C58.4355,108.4824 59.4609,108.9219 60.3398,108.9219 C61.1699,108.9219 62.2441,108.4824 63.0254,107.9941 C96.131,86.02148 119.812,61.2168 119.812,35.875 C119.812,15.5625 105.75,0.9629 86.8535,0.9629 C75.916,0.9629 65.2715,7.2617 60.3398,17.1738 C55.4082,7.3105 44.7637,0.9629 33.8262,0.9629 C14.9297,0.9629 0.8672,15.5625 0.8672,35.875 Z M4.8223,35.875 C4.8223,17.6133 17.0781,4.8691 33.8262,4.8691 C45.3008,4.8691 53.3574,11.9004 58.0938,20.6406 C58.8262,21.959 59.4609,22.4961 60.3398,22.4961 C61.2188,22.4961 61.8047,21.959 62.5859,20.6406 C67.3711,11.9004 75.3789,4.8691 86.8535,4.8691 C103.553,4.8691 115.857,17.6133 115.857,35.875 C115.857,59.8008 91.395,84.3125 61.1211,104.5273 C60.8281,104.7227 60.584,104.8691 60.3398,104.8691 C60.0957,104.8691 59.8516,104.7227 59.5586,104.5273 C29.2852,84.3125 4.8223,59.8008 4.8223,35.875 Z" id="Shape"></path>
                </g>
                <g id="Ultralight-L" transform="translate(0.421000, 846.000000)" fill="#000000" fill-rule="nonzero">
                    <path d="M0.5254,34.875 C0.5254,59.875 24.4512,84.33789 56.9707,106.1152 C57.6543,106.5547 58.5332,106.9453 59.2656,106.9453 C60.0469,106.9453 60.9258,106.5547 61.5605,106.1152 C94.129,84.33789 118.055,59.875 118.055,34.875 C118.055,15.002 104.285,0.6465 85.6816,0.6465 C74.9395,0.6465 64.002,7.1406 59.2656,17.3457 C54.5293,7.1406 43.6406,0.6465 32.8496,0.6465 C14.2949,0.6465 0.5254,15.002 0.5254,34.875 Z M3.0645,34.875 C3.0645,16.3203 15.6621,3.1855 32.8496,3.1855 C44.2266,3.1855 52.5762,10.1191 57.5078,19.3965 C58.0449,20.4707 58.5332,20.959 59.2656,20.959 C59.998,20.959 60.5352,20.4707 61.0723,19.3965 C65.9551,10.1191 74.3047,3.1855 85.6816,3.1855 C102.869,3.1855 115.516,16.3203 115.516,34.875 C115.516,58.8984 91.102,83.26367 59.9492,104.0645 C59.7539,104.2109 59.5098,104.3574 59.2656,104.3574 C59.0215,104.3574 58.8262,104.2109 58.6309,104.0645 C27.4785,83.26367 3.0645,58.8984 3.0645,34.875 Z" id="Shape"></path>
                </g>
                <g id="Black-M" transform="translate(2379.260000, 420.000000)" fill="#000000" fill-rule="nonzero">
                    <path d="M0.5469,35.4648 C0.5469,56.6074 18.4668,77.94531 44.4434,95.4258 C48.1055,97.916 51.7188,100.2109 54.1113,100.2109 C56.5039,100.2109 60.1172,97.916 63.7793,95.4258 C89.8047,77.94531 107.725,56.6074 107.725,35.4648 C107.725,14.0293 92.539,0.2598 75.8398,0.2598 C65.3418,0.2598 58.2129,4.459 54.1113,10.123 C50.0098,4.459 42.9297,0.2598 32.4316,0.2598 C15.6836,0.2598 0.5469,14.0293 0.5469,35.4648 Z M20.5176,35.2207 C20.5176,25.8945 27.3047,19.2051 36.1914,19.2051 C43.125,19.2051 46.543,22.623 49.375,26.2363 C50.791,28.2383 52.2559,29.3613 54.1113,29.3613 C56.0156,29.3613 57.334,28.2383 58.7988,26.2363 C61.8262,22.5742 65.1465,19.2051 72.0801,19.2051 C80.918,19.2051 87.7539,25.8945 87.7539,35.2207 C87.7539,47.916 75.8887,64.4199 54.5996,78.62891 C54.4531,78.72656 54.3066,78.77539 54.1113,78.77539 C53.916,78.77539 53.8184,78.72656 53.623,78.62891 C32.334,64.4199 20.5176,47.916 20.5176,35.2207 Z" id="Shape"></path>
                </g>
                <g id="Heavy-M" transform="translate(2083.410000, 421.000000)" fill="#000000" fill-rule="nonzero">
                    <path d="M0.8887,34.3184 C0.8887,55.4121 18.7109,76.50586 45.0781,94.0352 C48.1055,96.0859 51.2305,97.9902 53.2812,97.9902 C55.332,97.9902 58.457,96.0859 61.4844,94.0352 C87.8516,76.50586 105.674,55.4121 105.674,34.3184 C105.674,13.8594 91.27,0.4805 74.7656,0.4805 C64.6094,0.4805 57.4805,4.6797 53.2812,10.5879 C49.1309,4.6797 41.9531,0.4805 31.7969,0.4805 C15.293,0.4805 0.8887,13.8594 0.8887,34.3184 Z M17.9785,34.123 C17.9785,23.9668 25.2051,16.7891 34.6289,16.7891 C42.0996,16.7891 45.957,20.793 48.8867,24.6504 C50.2539,26.6523 51.5723,27.6777 53.2812,27.6777 C54.9902,27.6777 56.1621,26.6523 57.6758,24.6504 C60.7031,20.7441 64.4629,16.7891 71.9336,16.7891 C81.3574,16.7891 88.584,23.9668 88.584,34.123 C88.584,48.1367 74.9609,65.373 53.8672,79.43555 C53.623,79.58203 53.4766,79.67969 53.2812,79.67969 C53.0859,79.67969 52.9395,79.58203 52.6953,79.43555 C31.6016,65.373 17.9785,48.1367 17.9785,34.123 Z" id="Shape"></path>
                </g>
                <g id="Bold-M" transform="translate(1788.650000, 422.000000)" fill="#000000" fill-rule="nonzero">
                    <path d="M0.3281,33.1719 C0.3281,54.168 17.9551,75.06641 44.7129,92.5957 C47.1055,94.1582 49.6445,95.623 51.3535,95.623 C53.0625,95.623 55.6016,94.1582 57.9453,92.5957 C84.7031,75.06641 102.379,54.168 102.379,33.1719 C102.379,13.8359 88.8535,0.8477 72.5938,0.8477 C62.8281,0.8477 55.6016,5.0957 51.3535,11.1992 C47.1055,5.0957 39.8789,0.8477 30.0645,0.8477 C13.8047,0.8477 0.3281,13.8359 0.3281,33.1719 Z M14.1953,33.0742 C14.1953,21.9414 21.8125,14.2266 31.9199,14.2266 C39.9766,14.2266 44.3223,18.8164 47.3008,23.0645 C48.668,25.0176 49.8398,25.8965 51.3535,25.8965 C52.8672,25.8965 53.8926,25.0176 55.3574,23.0645 C58.5312,18.8164 62.7305,14.2266 70.7383,14.2266 C80.8457,14.2266 88.4629,21.9414 88.4629,33.0742 C88.4629,48.5039 72.9355,66.5703 52.0859,80.4375 C51.7441,80.63281 51.5488,80.7793 51.3535,80.7793 C51.1582,80.7793 50.9141,80.63281 50.6211,80.4375 C29.7227,66.5703 14.1953,48.5039 14.1953,33.0742 Z" id="Shape"></path>
                </g>
                <g id="Semibold-M" transform="translate(1492.570000, 423.000000)" fill="#000000" fill-rule="nonzero">
                    <path d="M0.5723,32.0742 C0.5723,53.0215 18.1504,73.72461 45.2012,91.3027 C47.0566,92.5234 49.2539,93.6953 50.6699,93.6953 C52.1348,93.6953 54.2832,92.5234 56.1875,91.3027 C83.2383,73.72461 100.816,53.0215 100.816,32.0742 C100.816,13.5195 87.877,0.7754 71.7637,0.7754 C62.2422,0.7754 55.0156,5.0234 50.6699,11.3711 C46.4219,5.0723 39.0977,0.7754 29.625,0.7754 C13.4629,0.7754 0.5723,13.5195 0.5723,32.0742 Z M12.291,32.0254 C12.291,20.209 20.2012,12.1523 30.748,12.1523 C39.1953,12.1523 43.8828,17.1328 46.9102,21.625 C48.2773,23.5781 49.3027,24.3594 50.6699,24.3594 C52.0859,24.3594 53.0137,23.5781 54.4297,21.625 C57.6523,17.1816 62.1934,12.1523 70.6406,12.1523 C81.1875,12.1523 89.098,20.209 89.098,32.0254 C89.098,48.4316 72.252,67.0352 51.5488,80.853516 C51.1582,81.0976562 50.8652,81.244141 50.6699,81.244141 C50.5234,81.244141 50.2305,81.0976562 49.8398,80.853516 C29.1367,67.0352 12.291,48.4316 12.291,32.0254 Z" id="Shape"></path>
                </g>
                <g id="Medium-M" transform="translate(1196.350000, 424.000000)" fill="#000000" fill-rule="nonzero">
                    <path d="M0.7676,31.0254 C0.7676,51.875 18.2969,72.48047 45.543,90.0586 C47.0566,91.0352 48.9121,92.0117 50.1816,92.0117 C51.4512,92.0117 53.3066,91.0352 54.8203,90.0586 C82.1152,72.48047 99.596,51.875 99.596,31.0254 C99.596,13.0078 87.1445,0.5078 71.1777,0.5078 C61.8516,0.5078 54.5762,4.7559 50.1816,11.2012 C45.8848,4.8047 38.5605,0.5078 29.2344,0.5078 C13.2188,0.5078 0.7676,13.0078 0.7676,31.0254 Z M10.8262,30.9766 C10.8262,18.6719 18.9316,10.3223 29.8203,10.3223 C38.6094,10.3223 43.541,15.6445 46.6172,20.2832 C47.9844,22.2852 48.9121,22.9199 50.1816,22.9199 C51.5,22.9199 52.3301,22.2363 53.7461,20.2832 C57.0664,15.7422 61.8027,10.3223 70.543,10.3223 C81.4805,10.3223 89.586,18.6719 89.586,30.9766 C89.586,48.1641 71.7148,67.207 51.1094,80.878906 C50.6699,81.17188 50.377,81.36719 50.1816,81.36719 C49.9863,81.36719 49.6934,81.17188 49.3027,80.878906 C28.6973,67.207 10.8262,48.1641 10.8262,30.9766 Z" id="Shape"></path>
                </g>
                <g id="Regular-M" transform="translate(901.300000, 425.000000)">
                    <path d="M0.0605,29.9277 C0.0605,50.7285 17.4922,71.1875 45.0312,88.76562 C46.0566,89.4004 47.5215,90.084 48.5469,90.084 C49.5723,90.084 51.0371,89.4004 52.1113,88.76562 C79.6016,71.1875 97.033,50.7285 97.033,29.9277 C97.033,12.6426 85.168,0.4355 69.3477,0.4355 C60.3145,0.4355 52.9902,4.7324 48.5469,11.3242 C44.2012,4.7812 36.7793,0.4355 27.7461,0.4355 C11.9258,0.4355 0.0605,12.6426 0.0605,29.9277 Z M7.9219,29.9277 C7.9219,16.9395 16.3203,8.2969 27.6484,8.2969 C36.8281,8.2969 42.1016,14.0098 45.2266,18.8926 C46.5449,20.8457 47.375,21.3828 48.5469,21.3828 C49.7188,21.3828 50.4512,20.7969 51.8672,18.8926 C55.2363,14.1074 60.3145,8.2969 69.4453,8.2969 C80.7734,8.2969 89.172,16.9395 89.172,29.9277 C89.172,48.0918 69.9824,67.6719 49.5723,81.24609 C49.084,81.58789 48.7422,81.83203 48.5469,81.83203 C48.3516,81.83203 48.0098,81.58789 47.5703,81.24609 C27.1113,67.6719 7.9219,48.0918 7.9219,29.9277 Z" id="Shape" fill="#000000" fill-rule="nonzero"></path>
                    <polygon id="Star-3" stroke="#979797" stroke-width="4" points="48.7 58.5 36.3565097 64.9893569 38.7139066 51.2446784 28.7278132 41.5106431 42.5282549 39.5053216 48.7 27 54.8717451 39.5053216 68.6721868 41.5106431 58.6860934 51.2446784 61.0434903 64.9893569"></polygon>
                </g>
                <g id="Light-M" transform="translate(605.000000, 426.000000)" fill="#000000" fill-rule="nonzero">
                    <path d="M0.5723,28.9277 C0.5723,49.2891 18.3457,69.25977 45.1523,86.64258 C46.0312,87.17969 47.252,87.7168 48.1309,87.7168 C49.0098,87.7168 50.2305,87.17969 51.1582,86.64258 C77.9648,69.25977 95.738,49.2891 95.738,28.9277 C95.738,12.2285 84.2148,0.3145 68.834,0.3145 C59.9961,0.3145 52.3301,4.8555 48.1309,11.8867 C43.9805,4.9043 36.2656,0.3145 27.4277,0.3145 C12.0469,0.3145 0.5723,12.2285 0.5723,28.9277 Z M6.5781,28.9277 C6.5781,15.5 15.416,6.3691 27.3789,6.3691 C36.4609,6.3691 42.0762,11.9844 45.4453,17.5996 C46.4707,19.2109 47.1543,19.6992 48.1309,19.6992 C49.1074,19.6992 49.7422,19.1621 50.8652,17.5996 C54.332,12.0332 59.8496,6.3691 68.8828,6.3691 C80.8457,6.3691 89.684,15.5 89.684,28.9277 C89.684,47.2383 70.5918,66.5742 49.0098,80.97852 C48.6191,81.22266 48.3262,81.41797 48.1309,81.41797 C47.9355,81.41797 47.6914,81.22266 47.3008,80.97852 C25.7188,66.5742 6.5781,47.2383 6.5781,28.9277 Z" id="Shape"></path>
                </g>
                <g id="Thin-M" transform="translate(309.147000, 427.000000)" fill="#000000" fill-rule="nonzero">
                    <path d="M0.8887,27.9277 C0.8887,47.7031 19.1504,67.03906 44.9805,84.12891 C45.6641,84.56836 46.5918,84.95898 47.2754,84.95898 C47.959,84.95898 48.8867,84.56836 49.5703,84.12891 C75.4004,67.03906 93.662,47.7031 93.662,27.9277 C93.662,11.9609 82.627,0.5352 67.832,0.5352 C59.2871,0.5352 51.1816,5.3691 47.2754,12.9375 C43.418,5.3691 35.2637,0.5352 26.7188,0.5352 C11.9238,0.5352 0.8887,11.9609 0.8887,27.9277 Z M4.5508,27.9277 C4.5508,13.9141 13.9258,4.1484 26.6699,4.1484 C35.6055,4.1484 41.709,9.666 45.3223,16.209 C46.0059,17.332 46.543,17.7715 47.2754,17.7715 C48.0078,17.7715 48.4961,17.332 49.2285,16.209 C52.8418,9.666 58.9453,4.1484 67.8809,4.1484 C80.625,4.1484 90,13.9141 90,27.9277 C90,46.3848 71.0059,65.4766 47.9102,80.90625 C47.666,81.05273 47.4707,81.19922 47.2754,81.19922 C47.0801,81.19922 46.8848,81.05273 46.6406,80.90625 C23.5449,65.4766 4.5508,46.3848 4.5508,27.9277 Z" id="Shape"></path>
                </g>
                <g id="Ultralight-M" transform="translate(13.388000, 428.000000)" fill="#000000" fill-rule="nonzero">
                    <path d="M0.5469,26.9277 C0.5469,46.4102 19.0527,65.4531 44.3945,82.39648 C44.9805,82.73828 45.7129,83.03125 46.2988,83.03125 C46.9336,83.03125 47.666,82.73828 48.2031,82.39648 C73.5938,65.4531 92.1,46.4102 92.1,26.9277 C92.1,11.3516 81.3086,0.1699 66.8066,0.1699 C58.4082,0.1699 50.0586,5.1504 46.2988,12.9629 C42.5879,5.1504 34.2383,0.1699 25.8398,0.1699 C11.3379,0.1699 0.5469,11.3516 0.5469,26.9277 Z M2.9395,26.9277 C2.9395,12.6211 12.6562,2.5625 25.8398,2.5625 C34.6777,2.5625 41.0254,7.9824 44.7852,14.9648 C45.2734,15.8926 45.7129,16.2832 46.2988,16.2832 C46.9336,16.2832 47.373,15.8926 47.8613,14.9648 C51.5723,7.9824 57.9688,2.5625 66.8066,2.5625 C79.9902,2.5625 89.707,12.6211 89.707,26.9277 C89.707,45.4824 70.7617,64.4277 46.8848,80.3457 C46.6895,80.49219 46.4941,80.58984 46.2988,80.58984 C46.1523,80.58984 45.957,80.49219 45.7617,80.3457 C21.8848,64.4277 2.9395,45.4824 2.9395,26.9277 Z" id="Shape"></path>
                </g>
                <g id="Black-S" transform="translate(2391.200000, 0.000000)" fill="#000000" fill-rule="nonzero">
                    <path d="M0.30078,28.3457 C0.30078,44.8984 14.3145,61.5977 34.7246,75.31836 C37.5566,77.22266 40.3398,78.98047 42.1953,78.98047 C44.0508,78.98047 46.834,77.22266 49.666,75.31836 C70.0762,61.5977 84.0898,44.8984 84.0898,28.3457 C84.0898,11.5977 72.2734,0.8555 59.1875,0.8555 C50.9844,0.8555 45.418,4.127 42.1953,8.5703 C38.9727,4.127 33.4062,0.8555 25.2031,0.8555 C12.1172,0.8555 0.30078,11.5977 0.30078,28.3457 Z M15.7305,28.1504 C15.7305,20.7773 21.1016,15.5039 28.084,15.5039 C33.5527,15.5039 36.2871,18.2383 38.4844,21.0703 C39.6074,22.6328 40.7305,23.5117 42.1953,23.5117 C43.6602,23.5117 44.6855,22.6328 45.8574,21.0703 C48.2012,18.1895 50.8379,15.5039 56.3066,15.5039 C63.2891,15.5039 68.6602,20.7773 68.6602,28.1504 C68.6602,38.209 59.2363,51.1973 42.5859,62.2812 C42.4395,62.3789 42.3418,62.4277 42.1953,62.4277 C42.0488,62.4277 41.9512,62.3789 41.8047,62.2812 C25.1543,51.1973 15.7305,38.209 15.7305,28.1504 Z" id="Shape"></path>
                </g>
                <g id="Heavy-S" transform="translate(2094.980000, 1.000000)" fill="#000000" fill-rule="nonzero">
                    <path d="M0.64258,27.248 C0.64258,43.8008 14.5098,60.4023 35.2617,74.12305 C37.6543,75.73438 40.0957,77.19922 41.707,77.19922 C43.3184,77.19922 45.7598,75.73438 48.1035,74.12305 C68.9043,60.4023 82.7715,43.8008 82.7715,27.248 C82.7715,11.1836 71.541,0.6855 58.5527,0.6855 C50.5938,0.6855 45.0273,3.957 41.707,8.5469 C38.3867,3.957 32.8203,0.6855 24.8613,0.6855 C11.873,0.6855 0.64258,11.1836 0.64258,27.248 Z M14.0703,27.1016 C14.0703,19.0938 19.6855,13.5273 27.0586,13.5273 C32.918,13.5273 35.9453,16.7012 38.1914,19.6797 C39.3145,21.291 40.3398,22.0723 41.707,22.0723 C43.0742,22.0723 44.002,21.2422 45.1738,19.6797 C47.5664,16.7012 50.4961,13.5273 56.3555,13.5273 C63.7285,13.5273 69.3438,19.0938 69.3438,27.1016 C69.3438,38.1367 58.5527,51.7109 42.1953,62.5996 C42,62.7461 41.8535,62.7949 41.707,62.7949 C41.5605,62.7949 41.4141,62.7461 41.2188,62.5996 C24.8125,51.7109 14.0703,38.1367 14.0703,27.1016 Z" id="Shape"></path>
                </g>
                <g id="Bold-S" transform="translate(1798.830000, 2.000000)" fill="#000000" fill-rule="nonzero">
                    <path d="M0.98438,26.1016 C0.98438,42.6543 14.7539,59.1582 35.8965,72.927734 C37.752,74.19727 39.8027,75.32031 41.1699,75.32031 C42.4883,75.32031 44.5391,74.19727 46.3945,72.927734 C67.5859,59.1582 81.3066,42.6543 81.3066,26.1016 C81.3066,10.8672 70.6621,0.6133 57.8203,0.6133 C50.1055,0.6133 44.5391,3.8848 41.1699,8.5723 C37.752,3.8848 32.1855,0.6133 24.4707,0.6133 C11.6289,0.6133 0.98438,10.8672 0.98438,26.1016 Z M12.2148,26.0039 C12.2148,17.3613 18.0742,11.4531 25.8867,11.4531 C32.2344,11.4531 35.5547,15.0664 37.8496,18.2402 C39.0215,19.8516 39.9004,20.5352 41.1699,20.5352 C42.3906,20.5352 43.2207,19.8516 44.4414,18.2402 C46.8828,15.1152 50.1055,11.4531 56.4043,11.4531 C64.2168,11.4531 70.0762,17.3613 70.0762,26.0039 C70.0762,38.1621 57.8203,52.3711 41.7559,63.06445 C41.4629,63.21094 41.3164,63.35742 41.1699,63.35742 C41.0234,63.35742 40.8281,63.21094 40.5352,63.06445 C24.4707,52.3711 12.2148,38.1621 12.2148,26.0039 Z" id="Shape"></path>
                </g>
                <g id="Semibold-S" transform="translate(1503.510000, 3.000000)" fill="#000000" fill-rule="nonzero">
                    <path d="M0.22852,25.0527 C0.22852,41.6055 13.9004,57.9629 35.3359,71.78125 C36.8496,72.80664 38.6074,73.73438 39.7793,73.73438 C40.9512,73.73438 42.709,72.80664 44.2227,71.78125 C65.6582,57.9629 79.2812,41.6055 79.2812,25.0527 C79.2812,10.3066 69.0762,0.248 56.332,0.248 C48.8125,0.248 43.2461,3.5195 39.7793,8.3535 C36.3125,3.5195 30.7461,0.248 23.2266,0.248 C10.4336,0.248 0.22852,10.3066 0.22852,25.0527 Z M9.9453,25.0039 C9.9453,15.873 16,9.7207 24.0566,9.7207 C30.7461,9.7207 34.3105,13.6758 36.6055,16.9473 C37.7773,18.6074 38.6074,19.1934 39.7793,19.1934 C40.9023,19.1934 41.6836,18.5586 42.9043,16.9473 C45.3945,13.7246 48.8125,9.7207 55.4531,9.7207 C63.5586,9.7207 69.6133,15.873 69.6133,25.0039 C69.6133,37.8457 56.332,52.4941 40.4629,63.04102 C40.1211,63.28516 39.9258,63.43164 39.7793,63.43164 C39.6328,63.43164 39.3887,63.28516 39.0469,63.04102 C23.2266,52.4941 9.9453,37.8457 9.9453,25.0039 Z" id="Shape"></path>
                </g>
                <g id="Medium-S" transform="translate(1207.070000, 3.000000)" fill="#000000" fill-rule="nonzero">
                    <path d="M0.42383,25.0039 C0.42383,41.5078 13.998,57.8652 35.6289,71.683594 C36.8984,72.51367 38.4609,73.29492 39.4863,73.29492 C40.5117,73.29492 42.0742,72.51367 43.2949,71.683594 C64.9746,57.8652 78.5488,41.5078 78.5488,25.0039 C78.5488,10.6484 68.6367,0.7363 55.9414,0.7363 C48.5684,0.7363 43.002,4.0078 39.4863,8.8906 C36.0195,4.0566 30.4043,0.7363 23.0312,0.7363 C10.2871,0.7363 0.42383,10.6484 0.42383,25.0039 Z M8.9688,24.9551 C8.9688,15.4824 15.1699,9.1348 23.4707,9.1348 C30.4043,9.1348 34.1152,13.334 36.459,16.7031 C37.6309,18.4121 38.4121,18.9492 39.4863,18.9492 C40.5605,18.9492 41.2441,18.3633 42.5137,16.7031 C45.0039,13.4316 48.6172,9.1348 55.502,9.1348 C63.8027,9.1348 70.0039,15.4824 70.0039,24.9551 C70.0039,38.3828 55.9414,53.373 40.2676,63.82227 C39.877,64.06641 39.6328,64.21289 39.4863,64.21289 C39.3398,64.21289 39.0957,64.06641 38.7051,63.82227 C23.0312,53.373 8.9688,38.3828 8.9688,24.9551 Z" id="Shape"></path>
                </g>
                <g id="Regular-S" transform="translate(910.750000, 4.000000)" fill="#000000" fill-rule="nonzero">
                    <path d="M0.66797,23.9062 C0.66797,40.459 14.1445,56.6699 36.0684,70.537109 C36.9473,71.12305 38.2656,71.70898 39.0957,71.70898 C39.9746,71.70898 41.2441,71.12305 42.123,70.537109 C64.0469,56.6699 77.5234,40.459 77.5234,23.9062 C77.5234,10.1367 68.0508,0.3711 55.4531,0.3711 C48.2266,0.3711 42.6602,3.6426 39.0957,8.623 C35.5801,3.6914 29.9648,0.3711 22.7383,0.3711 C10.1406,0.3711 0.66797,10.1367 0.66797,23.9062 Z M7.6992,23.9062 C7.6992,13.9941 14.0957,7.4023 22.6895,7.4023 C29.916,7.4023 33.8223,11.9434 36.2148,15.4102 C37.3867,17.1191 38.1191,17.6074 39.0957,17.6074 C40.1211,17.6074 40.707,17.0703 41.9766,15.4102 C44.5645,12.041 48.3242,7.4023 55.5508,7.4023 C64.1445,7.4023 70.4922,13.9941 70.4922,23.9062 C70.4922,38.0664 55.4043,53.5449 39.9746,63.79883 C39.5352,64.0918 39.2422,64.28711 39.0957,64.28711 C38.9492,64.28711 38.6562,64.0918 38.2656,63.79883 C22.7871,53.5449 7.6992,38.0664 7.6992,23.9062 Z" id="Shape"></path>
                </g>
                <g id="Light-S" transform="translate(615.280000, 5.000000)" fill-rule="nonzero">
                    <path d="M0.22852,22.9062 C0.22852,39.0195 13.998,54.8887 35.2871,68.560547 C36.0684,69.0488281 37.0938,69.488281 37.875,69.488281 C38.6074,69.488281 39.6328,69.0488281 40.4141,68.560547 C61.7031,54.8887 75.4727,39.0195 75.4727,22.9062 C75.4727,9.625 66.3418,0.1523 54.0859,0.1523 C47.1035,0.1523 41.2441,3.6191 37.875,8.9902 C34.5059,3.668 28.5977,0.1523 21.6152,0.1523 C9.3594,0.1523 0.22852,9.625 0.22852,22.9062 Z M5.6484,22.9062 C5.6484,12.5547 12.3867,5.6211 21.5176,5.6211 C28.6953,5.6211 32.9434,10.0156 35.4824,14.166 C36.4102,15.5332 36.9961,15.9727 37.875,15.9727 C38.7051,15.9727 39.2422,15.5332 40.2188,14.166 C42.9043,10.1133 47.0547,5.6211 54.1836,5.6211 C63.3145,5.6211 70.0527,12.5547 70.0527,22.9062 C70.0527,37.2129 55.0625,52.4473 38.5586,63.43359 C38.2656,63.62891 38.0215,63.82422 37.875,63.82422 C37.7285,63.82422 37.4844,63.62891 37.1426,63.43359 C20.6387,52.4473 5.6484,37.2129 5.6484,22.9062 Z" id="Shape" fill="#000000"></path>
                    <polygon id="Path" stroke="#979797" stroke-width="4" points="38.1743979 50.3380047 26.1227352 57 28.4243979 42.8896674 18.6743979 32.8966744 32.1485665 30.8380047 38.1743979 18 44.2002293 30.8380047 57.6743979 32.8966744 47.9243979 42.8896674 50.2260607 57"></polygon>
                </g>
                <g id="Thin-S" transform="translate(319.207000, 6.000000)">
                    <path d="M0.64258,21.9062 C0.64258,37.5312 14.8516,52.8145 35.3105,66.24219 C35.8477,66.63281 36.6289,66.92578 37.2148,66.92578 C37.8008,66.92578 38.582,66.63281 39.1191,66.24219 C59.5781,52.8145 73.7871,37.5312 73.7871,21.9062 C73.7871,9.2598 65.0469,0.2266 53.3281,0.2266 C46.5898,0.2266 40.291,3.9863 37.2148,9.7969 C34.1387,3.9863 27.8398,0.2266 21.0527,0.2266 C9.3828,0.2266 0.64258,9.2598 0.64258,21.9062 Z M3.9629,21.9062 C3.9629,11.0664 11.1895,3.5469 21.0527,3.5469 C28.084,3.5469 32.7715,7.8438 35.5547,12.8242 C36.1406,13.8008 36.5801,14.1426 37.2148,14.1426 C37.8496,14.1426 38.2402,13.8008 38.875,12.8242 C41.707,7.8926 46.3457,3.5469 53.377,3.5469 C63.2402,3.5469 70.4668,11.0664 70.4668,21.9062 C70.4668,36.3594 55.5742,51.3496 37.752,63.21484 C37.5566,63.36133 37.3613,63.50781 37.2148,63.50781 C37.0684,63.50781 36.873,63.36133 36.6777,63.21484 C18.8555,51.3496 3.9629,36.3594 3.9629,21.9062 Z" id="Shape" fill="#000000" fill-rule="nonzero"></path>
                    <polygon id="Star-2" stroke="#979797" stroke-width="2" points="37.2473979 49.3380047 25.1957352 56 27.4973979 41.8896674 17.7473979 31.8966744 31.2215665 29.8380047 37.2473979 17 43.2732293 29.8380047 56.7473979 31.8966744 46.9973979 41.8896674 49.2990607 56"></polygon>
                </g>
                <g id="Ultralight-S" transform="translate(23.351000, 6.000000)">
                    <path d="M0.34961,21.9062 C0.34961,37.2383 14.7539,52.2773 34.7734,65.55859 C35.2617,65.85156 35.8477,66.14453 36.3848,66.14453 C36.873,66.14453 37.5078,65.85156 37.9473,65.55859 C57.9668,52.2773 72.3711,37.2383 72.3711,21.9062 C72.3711,9.6016 63.875,0.7637 52.4492,0.7637 C45.8086,0.7637 39.3145,4.6699 36.3848,10.7246 C33.4062,4.6699 26.9121,0.7637 20.2715,0.7637 C8.8457,0.7637 0.34961,9.6016 0.34961,21.9062 Z M2.5469,21.9062 C2.5469,10.7734 10.0664,3.0098 20.2715,3.0098 C27.2539,3.0098 32.1367,7.2578 35.0664,12.6289 C35.5059,13.4102 35.8477,13.7031 36.3848,13.7031 C36.873,13.7031 37.2148,13.4102 37.6543,12.6289 C40.584,7.2578 45.5156,3.0098 52.4492,3.0098 C62.6543,3.0098 70.1738,10.7734 70.1738,21.9062 C70.1738,36.457 55.3301,51.3008 36.8242,63.6543 C36.6777,63.75195 36.5312,63.84961 36.3848,63.84961 C36.2383,63.84961 36.043,63.75195 35.8965,63.6543 C17.3906,51.3008 2.5469,36.457 2.5469,21.9062 Z" id="Shape" fill="#000000" fill-rule="nonzero"></path>
                    <polygon id="Star" stroke="#979797" points="36.5 48.3380047 24.4483372 55 26.75 40.8896674 17 30.8966744 30.4741686 28.8380047 36.5 16 42.5258314 28.8380047 56 30.8966744 46.25 40.8896674 48.5516628 55"></polygon>
                </g>
            </g>
        </g>
    </g>
</svg>